<svg xmlns="http://www.w3.org/2000/svg" xml:space="preserve" style="enable-background:new 0 0 385 150" viewBox="0 0 385 150"><path d="m59.6 84.1 10.8-5c2 5.4 6.3 10.1 13.4 10.1 5.5 0 10.1-2.8 10.1-8.9 0-5.1-3-7.3-10-10.1l-4.4-1.7C70 64.8 62.2 59.6 62.2 49c0-11.6 9.7-18.8 21.4-18.8 11.9 0 19.1 7.3 22.2 14.6l-9.9 5.6c-2.9-5.6-6.7-8.3-11.8-8.3-5 0-8.7 2.4-8.7 7 0 3.6 2 6.4 9.7 9.4l4.7 1.9c12.1 4.9 18.1 10.3 18.1 20.2 0 14-12.3 20.9-23.9 20.9-12.1-.1-22-7.2-24.4-17.4M140.9 89.7c-7.4 0-14.1-5.1-14.1-14.6 0-9.6 6.7-14.6 14.1-14.6 7.2 0 14 5.2 14 14.6 0 9.4-6.8 14.6-14 14.6m23.9-14.6c0-3.7.6-7 1.6-10-3.7-10.9-13.5-16.3-22.8-16.3-9.1 0-14.9 5-16.2 7.8h-.4v-6.8h-13v70h13V93.6h.3c1.3 2.8 7.1 7.8 16.2 7.8 9.3 0 19.1-5.4 22.8-16.3-1-3-1.5-6.3-1.5-10M198.1 89.7c-7.3 0-14.1-5.2-14.1-14.6 0-9.5 6.8-14.6 14.1-14.6s14.1 5.1 14.1 14.6c.1 9.5-6.8 14.6-14.1 14.6m24.2-14.6c0-4.7 1-8.8 2.8-12.3v-13H212v6.8h-.3c-1.3-2.8-7.1-7.8-16.2-7.8-11.8 0-24.4 8.8-24.4 26.3s12.6 26.3 24.4 26.3c9.1 0 14.9-5 16.2-7.8h.3v6.8h13v-13c-1.7-3.5-2.7-7.6-2.7-12.3M268.3 83l-.3-.2c-2.6 4-6.9 6.8-12.2 6.8-7.3 0-13.9-5.5-13.9-14.5 0-9.1 6.6-14.5 13.9-14.5 5.3 0 9.6 2.8 12.2 6.8l.3-.2c1.1-4.2 3.2-7.7 5.8-10.5-4.8-5.2-11.3-7.9-18.4-7.9-13.4 0-26.7 9.2-26.7 26.3s13.4 26.3 26.7 26.3c7.1 0 13.6-2.7 18.5-7.9-2.8-2.9-4.8-6.4-5.9-10.5M286.9 70.6h26.5c-.8-7.2-6.8-10.8-13-10.8-6 0-11.8 3.5-13.5 10.8m38.1 9.5h-37.9c1.9 6.9 7.9 10.5 15.5 10.5 5 0 9.4-1.4 13.1-4.6l6 6.3c-4.2 5.3-11.5 9-20.5 9-13.9 0-26.4-9.5-26.4-26.3 0-17.1 12.7-26.3 25.7-26.3 12.7.1 27.4 9.1 24.5 31.4"/></svg>