<svg xmlns="http://www.w3.org/2000/svg" width="400" height="150"><g fill="none" fill-rule="nonzero"><path fill="#000F51" d="m59 83.881 10.828-4.968c1.95 5.359 6.34 10.133 13.363 10.133 5.462 0 10.144-2.825 10.144-8.866 0-5.067-3.024-7.308-10.046-10.134l-4.39-1.656c-9.462-3.8-17.266-9.063-17.266-19.585C61.633 37.21 71.291 30 82.996 30c11.9 0 19.118 7.308 22.24 14.615l-9.95 5.554c-2.926-5.554-6.73-8.282-11.802-8.282-4.975 0-8.681 2.436-8.681 7.015 0 3.605 2.048 6.431 9.656 9.354l4.682 1.852c12.095 4.871 18.143 10.328 18.143 20.17 0 14.03-12.29 20.85-23.898 20.85-12.095 0-21.947-7.112-24.386-17.247M140.289 89.436c-7.414 0-14.144-5.067-14.144-14.615 0-9.55 6.73-14.615 14.144-14.615 7.218 0 14.045 5.163 14.045 14.615 0 9.45-6.827 14.615-14.045 14.615m23.866-14.615c0-3.722.57-7.044 1.577-9.976-3.733-10.885-13.51-16.332-22.81-16.332-9.071 0-14.924 4.97-16.192 7.794h-.293v-6.82h-13.07v70.029h13.07V93.333h.293c1.268 2.825 7.121 7.795 16.192 7.795 9.3 0 19.077-5.446 22.81-16.332-1.006-2.932-1.577-6.255-1.577-9.975M197.513 89.436c-7.316 0-14.144-5.164-14.144-14.615 0-9.452 6.828-14.615 14.144-14.615s14.144 5.065 14.144 14.615c0 9.548-6.828 14.615-14.144 14.615m24.151-14.615c0-4.726 1.02-8.843 2.77-12.33V49.486h-13.07v6.82h-.292c-1.269-2.825-7.121-7.794-16.193-7.794-11.803 0-24.386 8.769-24.386 26.308 0 17.538 12.583 26.307 24.386 26.307 9.072 0 14.924-4.97 16.193-7.795h.292v6.82h13.07V87.152c-1.75-3.488-2.77-7.604-2.77-12.33M267.658 82.729l-.328-.212c-2.634 3.996-6.925 6.821-12.193 6.821-7.316 0-13.949-5.457-13.949-14.517 0-9.062 6.633-14.518 13.949-14.518 5.268 0 9.56 2.825 12.193 6.82l.317-.204c1.14-4.21 3.186-7.734 5.83-10.533-4.819-5.226-11.318-7.873-18.438-7.873-13.363 0-26.727 9.159-26.727 26.308s13.363 26.307 26.727 26.307c7.132 0 13.64-2.717 18.463-7.936-2.669-2.796-4.705-6.302-5.844-10.463M286.31 70.338h26.531c-.78-7.21-6.827-10.816-12.973-10.816-6.048 0-11.9 3.509-13.559 10.816m38.14 9.55h-37.944c1.853 6.917 7.9 10.522 15.51 10.522 4.974 0 9.363-1.364 13.07-4.579l5.95 6.334c-4.195 5.26-11.51 8.963-20.484 8.963-13.948 0-26.434-9.451-26.434-26.307 0-17.052 12.68-26.308 25.653-26.308 12.877 0 27.507 9.061 24.679 31.375"/><g fill="#DD0473"><path d="m333.26 94.095-6.147-3.079-.005-.004c-.07.16-.108.335-.108.517v6.17c-.004.493.273.944.711 1.166l5.177 2.593c.118.06.244.099.372.12v-7.483ZM333.79 93.091l6.135-3.072a1.29 1.29 0 0 0-.383-.29l-5.176-2.593a1.287 1.287 0 0 0-1.152 0l-5.176 2.592a1.273 1.273 0 0 0-.382.291l6.134 3.072ZM340.467 91.016l-6.147 3.079v7.482c.126-.021.248-.06.366-.12l5.176-2.592c.44-.219.718-.668.719-1.16V91.53a1.32 1.32 0 0 0-.108-.517l-.006.004"/></g></g></svg>