<svg xmlns="http://www.w3.org/2000/svg" xml:space="preserve" id="Layer_1" x="0" y="0" style="enable-background:new 0 0 400 150" version="1.1" viewBox="0 0 400 150"><style>.st0{fill:#fff}.st1{fill:#dd0473}</style><g id="Artboard"><g id="SR-Blue" transform="translate(59 30)"><path id="Fill-1" d="m0 53.9 10.8-5c2 5.4 6.3 10.1 13.4 10.1 5.5 0 10.1-2.8 10.1-8.9 0-5.1-3-7.3-10-10.1l-4.4-1.7c-9.5-3.8-17.3-9.1-17.3-19.6C2.6 7.2 12.3 0 24 0c11.9 0 19.1 7.3 22.2 14.6l-9.9 5.6c-2.9-5.6-6.7-8.3-11.8-8.3-5 0-8.7 2.4-8.7 7 0 3.6 2 6.4 9.7 9.4l4.7 1.9c12 4.8 18.1 10.2 18.1 20.1 0 14-12.3 20.9-23.9 20.9C12.3 71.1 2.4 64 0 53.9" class="st0"/><path id="Fill-3" d="M81.3 59.4c-7.4 0-14.1-5.1-14.1-14.6 0-9.6 6.7-14.6 14.1-14.6 7.2 0 14 5.2 14 14.6 0 9.5-6.8 14.6-14 14.6m23.9-14.6c0-3.7.6-7 1.6-10C103 24 93.2 18.5 83.9 18.5c-9.1 0-14.9 5-16.2 7.8h-.3v-6.8h-13v70h13.1V63.3h.3c1.3 2.8 7.1 7.8 16.2 7.8 9.3 0 19.1-5.4 22.8-16.3-1.1-2.9-1.6-6.3-1.6-10" class="st0"/><path id="Fill-5" d="M138.5 59.4c-7.3 0-14.1-5.2-14.1-14.6 0-9.5 6.8-14.6 14.1-14.6s14.1 5.1 14.1 14.6c.1 9.6-6.8 14.6-14.1 14.6m24.2-14.6c0-4.7 1-8.8 2.8-12.3v-13h-13.1v6.8h-.3c-1.3-2.8-7.1-7.8-16.2-7.8-11.8 0-24.4 8.8-24.4 26.3s12.6 26.3 24.4 26.3c9.1 0 14.9-5 16.2-7.8h.3v6.8h13.1v-13c-1.8-3.4-2.8-7.6-2.8-12.3" class="st0"/><path id="Fill-7" d="m208.7 52.7-.3-.2c-2.6 4-6.9 6.8-12.2 6.8-7.3 0-13.9-5.5-13.9-14.5 0-9.1 6.6-14.5 13.9-14.5 5.3 0 9.6 2.8 12.2 6.8l.3-.2c1.1-4.2 3.2-7.7 5.8-10.5-4.8-5.2-11.3-7.9-18.4-7.9-13.4 0-26.7 9.2-26.7 26.3s13.4 26.3 26.7 26.3c7.1 0 13.6-2.7 18.5-7.9-2.8-2.8-4.8-6.3-5.9-10.5" class="st0"/><path id="Fill-9" d="M227.3 40.3h26.5c-.8-7.2-6.8-10.8-13-10.8-6 0-11.8 3.5-13.5 10.8m38.1 9.6h-37.9c1.9 6.9 7.9 10.5 15.5 10.5 5 0 9.4-1.4 13.1-4.6l6 6.3c-4.2 5.3-11.5 9-20.5 9-13.9 0-26.4-9.5-26.4-26.3 0-17.1 12.7-26.3 25.7-26.3 12.7 0 27.4 9.1 24.5 31.4" class="st0"/><g id="Group-Copy-5" transform="translate(268 57)"><path id="Fill-1_00000075125926748036319320000006839205071453821626_" d="M6.3 7.1.1 4c-.1.2-.1.3-.1.5v6.2c0 .5.3.9.7 1.2l5.2 2.6c.1.1.2.1.4.1V7.1z" class="st1"/><path id="Fill-3_00000054973630849971091220000014099711226270550443_" d="M6.8 6.1 12.9 3c-.1-.1-.2-.2-.4-.3L7.4.1C7 0 6.6 0 6.2.1L1 2.7.7 3l6.1 3.1z" class="st1"/><path id="Fill-6" d="M13.5 4 7.3 7.1v7.5c.1 0 .2-.1.4-.1l5.2-2.6c.4-.2.7-.7.7-1.2V4.5c0-.2-.1-.3-.1-.5" class="st1"/></g></g></g></svg>