<svg xmlns="http://www.w3.org/2000/svg" xml:space="preserve" id="Layer_1" x="0" y="0" style="enable-background:new 0 0 130 130" version="1.1" viewBox="0 0 130 130"><style>.st0{fill:#cf114c}</style><g id="Artboard"><g id="SR-Blue" transform="translate(59 30)"><g id="Group-Copy-5" transform="translate(268 57)"><path id="Fill-1_00000075125926748036319320000006839205071453821626_" d="m-264.7-23-31.8-15.9c-.4.8-.6 1.7-.6 2.7v31.9c0 2.6 1.4 4.9 3.7 6l26.8 13.4c.6.3 1.3.5 1.9.6V-23z" class="st0"/><path id="Fill-3_00000054973630849971091220000014099711226270550443_" d="m-262-28.2 31.7-15.9c-.6-.6-1.2-1.1-2-1.5L-259-59c-1.9-.9-4.1-.9-6 0l-26.8 13.4c-.8.4-1.4.9-2 1.5l31.8 15.9z" class="st0"/><path id="Fill-6" d="M-227.5-38.9-259.3-23v38.7c.7-.1 1.3-.3 1.9-.6l26.8-13.4c2.3-1.1 3.7-3.5 3.7-6v-32c0-.9-.2-1.8-.6-2.6.1 0 .1 0 0 0" class="st0"/></g></g></g></svg>